<svg width="563" height="429" viewBox="0 0 563 429" fill="none" xmlns="http://www.w3.org/2000/svg">
<path d="M441.536 31H268C263.582 31 260 34.5817 260 39V383C260 387.418 263.582 391 268 391H441.536C445.955 391 449.536 387.418 449.536 383V39C449.536 34.5817 445.955 31 441.536 31Z" fill="#3C3C3C"/>
<path d="M354.172 365.47C362.456 365.47 369.172 358.754 369.172 350.47C369.172 342.186 362.456 335.47 354.172 335.47C345.888 335.47 339.172 342.186 339.172 350.47C339.172 358.754 345.888 365.47 354.172 365.47Z" fill="white"/>
<path d="M341.172 54.457C342.276 54.457 343.172 53.5616 343.172 52.457C343.172 51.3525 342.276 50.457 341.172 50.457C340.067 50.457 339.172 51.3525 339.172 52.457C339.172 53.5616 340.067 54.457 341.172 54.457Z" fill="white"/>
<path d="M367.172 50.457H350.172C349.067 50.457 348.172 51.3525 348.172 52.457C348.172 53.5616 349.067 54.457 350.172 54.457H367.172C368.276 54.457 369.172 53.5616 369.172 52.457C369.172 51.3525 368.276 50.457 367.172 50.457Z" fill="white"/>
<path fill-rule="evenodd" clip-rule="evenodd" d="M278 275H431C433.209 275 435 276.791 435 279V322C435 324.209 433.209 326 431 326H285.485L274 326.433V279C274 276.791 275.791 275 278 275Z" fill="white"/>
<path d="M413 290.3H316C314.343 290.3 313 291.643 313 293.3V294.95C313 296.607 314.343 297.95 316 297.95H413C414.657 297.95 416 296.607 416 294.95V293.3C416 291.643 414.657 290.3 413 290.3Z" fill="#DCA9A9"/>
<path fill-rule="evenodd" clip-rule="evenodd" d="M317.896 312.8H313.852V304.796H317.788C318.5 304.796 319.058 304.99 319.462 305.378C319.866 305.766 320.068 306.252 320.068 306.836C320.068 307.316 319.934 307.722 319.666 308.054C319.398 308.386 319.068 308.592 318.676 308.672C319.108 308.736 319.474 308.958 319.774 309.338C320.074 309.718 320.224 310.152 320.224 310.64C320.224 311.28 320.018 311.8 319.606 312.2C319.194 312.6 318.624 312.8 317.896 312.8ZM317.5 308.108C317.852 308.108 318.128 308.012 318.328 307.82C318.528 307.628 318.628 307.38 318.628 307.076C318.628 306.764 318.528 306.512 318.328 306.32C318.128 306.128 317.852 306.032 317.5 306.032H315.256V308.108H317.5ZM317.56 311.564C317.944 311.564 318.244 311.466 318.46 311.27C318.676 311.074 318.784 310.8 318.784 310.448C318.784 310.136 318.676 309.874 318.46 309.662C318.244 309.45 317.944 309.344 317.56 309.344H315.256V311.564H317.56ZM322.772 312.8H321.512V307.004H322.772V307.856C322.996 307.568 323.276 307.332 323.612 307.148C323.948 306.964 324.296 306.872 324.656 306.872V308.12C324.544 308.096 324.412 308.084 324.26 308.084C323.996 308.084 323.714 308.162 323.414 308.318C323.114 308.474 322.9 308.652 322.772 308.852V312.8ZM330.396 312.8H329.136V312.176C328.688 312.688 328.064 312.944 327.264 312.944C326.736 312.944 326.268 312.774 325.86 312.434C325.452 312.094 325.248 311.624 325.248 311.024C325.248 310.408 325.45 309.94 325.854 309.62C326.258 309.3 326.728 309.14 327.264 309.14C328.088 309.14 328.712 309.388 329.136 309.884V309.02C329.136 308.684 329.012 308.42 328.764 308.228C328.516 308.036 328.188 307.94 327.78 307.94C327.132 307.94 326.56 308.184 326.064 308.672L325.548 307.796C326.204 307.172 327.016 306.86 327.984 306.86C328.696 306.86 329.276 307.028 329.724 307.364C330.172 307.7 330.396 308.232 330.396 308.96V312.8ZM327.756 312.08C328.388 312.08 328.848 311.88 329.136 311.48V310.604C328.848 310.204 328.388 310.004 327.756 310.004C327.396 310.004 327.1 310.1 326.868 310.292C326.636 310.484 326.52 310.736 326.52 311.048C326.52 311.36 326.636 311.61 326.868 311.798C327.1 311.986 327.396 312.08 327.756 312.08ZM337.12 312.8H335.86V309.176C335.86 308.376 335.472 307.976 334.696 307.976C334.392 307.976 334.108 308.052 333.844 308.204C333.58 308.356 333.368 308.54 333.208 308.756V312.8H331.948V307.004H333.208V307.796C333.424 307.54 333.712 307.32 334.072 307.136C334.432 306.952 334.824 306.86 335.248 306.86C335.864 306.86 336.33 307.02 336.646 307.34C336.962 307.66 337.12 308.12 337.12 308.72V312.8ZM344.012 312.8H342.752V312.008C342.272 312.632 341.652 312.944 340.892 312.944C340.132 312.944 339.512 312.672 339.032 312.128C338.552 311.584 338.312 310.844 338.312 309.908C338.312 308.98 338.552 308.24 339.032 307.688C339.512 307.136 340.132 306.86 340.892 306.86C341.652 306.86 342.272 307.176 342.752 307.808V304.796H344.012V312.8ZM341.252 311.828C341.548 311.828 341.836 311.756 342.116 311.612C342.396 311.468 342.608 311.284 342.752 311.06V308.756C342.608 308.532 342.396 308.346 342.116 308.198C341.836 308.05 341.548 307.976 341.252 307.976C340.756 307.976 340.36 308.156 340.064 308.516C339.768 308.876 339.62 309.34 339.62 309.908C339.62 310.476 339.768 310.938 340.064 311.294C340.36 311.65 340.756 311.828 341.252 311.828ZM346.8 312.692C346.632 312.852 346.436 312.932 346.212 312.932C345.988 312.932 345.792 312.85 345.624 312.686C345.456 312.522 345.372 312.324 345.372 312.092C345.372 311.86 345.456 311.662 345.624 311.498C345.792 311.334 345.988 311.252 346.212 311.252C346.436 311.252 346.632 311.334 346.8 311.498C346.968 311.662 347.052 311.86 347.052 312.092C347.052 312.324 346.968 312.524 346.8 312.692ZM349.684 312.8H348.424V304.796H349.684V312.8ZM351.86 306.296C351.652 306.296 351.47 306.22 351.314 306.068C351.158 305.916 351.08 305.732 351.08 305.516C351.08 305.3 351.158 305.116 351.314 304.964C351.47 304.812 351.652 304.736 351.86 304.736C352.076 304.736 352.26 304.812 352.412 304.964C352.564 305.116 352.64 305.3 352.64 305.516C352.64 305.732 352.564 305.916 352.412 306.068C352.26 306.22 352.076 306.296 351.86 306.296ZM352.496 312.8H351.236V307.004H352.496V312.8ZM359.22 312.8H357.96V309.176C357.96 308.376 357.572 307.976 356.796 307.976C356.492 307.976 356.208 308.052 355.944 308.204C355.68 308.356 355.468 308.54 355.308 308.756V312.8H354.048V307.004H355.308V307.796C355.524 307.54 355.812 307.32 356.172 307.136C356.532 306.952 356.924 306.86 357.348 306.86C357.964 306.86 358.43 307.02 358.746 307.34C359.062 307.66 359.22 308.12 359.22 308.72V312.8ZM366.196 312.8H364.612L362.836 310.412L362.032 311.24V312.8H360.772V304.796H362.032V309.8L364.588 307.004H366.148L363.736 309.632L366.196 312.8ZM367.124 313.04H366.188L369.032 304.556H369.968L367.124 313.04ZM377.256 312.8H375.528L372.84 309.428L372.144 310.244V312.8H370.74V304.796H372.144V308.612L375.276 304.796H377.016L373.764 308.576L377.256 312.8ZM380.392 312.944C379.512 312.944 378.786 312.662 378.214 312.098C377.642 311.534 377.356 310.8 377.356 309.896C377.356 309.048 377.634 308.33 378.19 307.742C378.746 307.154 379.448 306.86 380.296 306.86C381.152 306.86 381.842 307.156 382.366 307.748C382.89 308.34 383.152 309.096 383.152 310.016V310.316H378.676C378.724 310.772 378.912 311.152 379.24 311.456C379.568 311.76 379.996 311.912 380.524 311.912C380.82 311.912 381.118 311.856 381.418 311.744C381.718 311.632 381.968 311.476 382.168 311.276L382.744 312.104C382.16 312.664 381.376 312.944 380.392 312.944ZM381.928 309.428C381.912 309.028 381.766 308.672 381.49 308.36C381.214 308.048 380.816 307.892 380.296 307.892C379.8 307.892 379.412 308.046 379.132 308.354C378.852 308.662 378.696 309.02 378.664 309.428H381.928ZM384.068 315.068L384.26 313.94C384.404 314.004 384.564 314.036 384.74 314.036C385.148 314.036 385.424 313.868 385.568 313.532L385.856 312.872L383.48 307.004H384.824L386.516 311.348L388.208 307.004H389.564L386.768 313.844C386.424 314.7 385.76 315.136 384.776 315.152C384.512 315.152 384.276 315.124 384.068 315.068ZM396.648 312.8H395.328L393.984 308.552L392.64 312.8H391.32L389.52 307.004H390.828L392.052 311.216L393.432 307.004H394.536L395.916 311.216L397.14 307.004H398.448L396.648 312.8ZM401.86 312.944C400.964 312.944 400.244 312.65 399.7 312.062C399.156 311.474 398.884 310.752 398.884 309.896C398.884 309.04 399.156 308.32 399.7 307.736C400.244 307.152 400.964 306.86 401.86 306.86C402.764 306.86 403.488 307.152 404.032 307.736C404.576 308.32 404.848 309.04 404.848 309.896C404.848 310.76 404.576 311.484 404.032 312.068C403.488 312.652 402.764 312.944 401.86 312.944ZM401.86 311.828C402.38 311.828 402.79 311.642 403.09 311.27C403.39 310.898 403.54 310.44 403.54 309.896C403.54 309.36 403.39 308.906 403.09 308.534C402.79 308.162 402.38 307.976 401.86 307.976C401.348 307.976 400.942 308.162 400.642 308.534C400.342 308.906 400.192 309.36 400.192 309.896C400.192 310.44 400.342 310.898 400.642 311.27C400.942 311.642 401.348 311.828 401.86 311.828ZM407.3 312.8H406.04V307.004H407.3V307.856C407.524 307.568 407.804 307.332 408.14 307.148C408.476 306.964 408.824 306.872 409.184 306.872V308.12C409.072 308.096 408.94 308.084 408.788 308.084C408.524 308.084 408.242 308.162 407.942 308.318C407.642 308.474 407.428 308.652 407.3 308.852V312.8ZM415.464 312.8H414.204V312.008C413.724 312.632 413.104 312.944 412.344 312.944C411.584 312.944 410.964 312.672 410.484 312.128C410.004 311.584 409.764 310.844 409.764 309.908C409.764 308.98 410.004 308.24 410.484 307.688C410.964 307.136 411.584 306.86 412.344 306.86C413.104 306.86 413.724 307.176 414.204 307.808V304.796H415.464V312.8ZM412.704 311.828C413 311.828 413.288 311.756 413.568 311.612C413.848 311.468 414.06 311.284 414.204 311.06V308.756C414.06 308.532 413.848 308.346 413.568 308.198C413.288 308.05 413 307.976 412.704 307.976C412.208 307.976 411.812 308.156 411.516 308.516C411.22 308.876 411.072 309.34 411.072 309.908C411.072 310.476 411.22 310.938 411.516 311.294C411.812 311.65 412.208 311.828 412.704 311.828Z" fill="black"/>
<path d="M295 312.5C301.627 312.5 307 307.127 307 300.5C307 293.873 301.627 288.5 295 288.5C288.373 288.5 283 293.873 283 300.5C283 307.127 288.373 312.5 295 312.5Z" fill="#B94D4D"/>
<path fill-rule="evenodd" clip-rule="evenodd" d="M278 206H431C433.209 206 435 207.791 435 210V253C435 255.209 433.209 257 431 257H285.485L274 267V210C274 207.791 275.791 206 278 206Z" fill="white"/>
<path d="M413 221.3H316C314.343 221.3 313 222.643 313 224.3V225.95C313 227.607 314.343 228.95 316 228.95H413C414.657 228.95 416 227.607 416 225.95V224.3C416 222.643 414.657 221.3 413 221.3Z" fill="#DCA9A9"/>
<path fill-rule="evenodd" clip-rule="evenodd" d="M317.896 243.8H313.852V235.796H317.788C318.5 235.796 319.058 235.99 319.462 236.378C319.866 236.766 320.068 237.252 320.068 237.836C320.068 238.316 319.934 238.722 319.666 239.054C319.398 239.386 319.068 239.592 318.676 239.672C319.108 239.736 319.474 239.958 319.774 240.338C320.074 240.718 320.224 241.152 320.224 241.64C320.224 242.28 320.018 242.8 319.606 243.2C319.194 243.6 318.624 243.8 317.896 243.8ZM317.5 239.108C317.852 239.108 318.128 239.012 318.328 238.82C318.528 238.628 318.628 238.38 318.628 238.076C318.628 237.764 318.528 237.512 318.328 237.32C318.128 237.128 317.852 237.032 317.5 237.032H315.256V239.108H317.5ZM317.56 242.564C317.944 242.564 318.244 242.466 318.46 242.27C318.676 242.074 318.784 241.8 318.784 241.448C318.784 241.136 318.676 240.874 318.46 240.662C318.244 240.45 317.944 240.344 317.56 240.344H315.256V242.564H317.56ZM322.772 243.8H321.512V238.004H322.772V238.856C322.996 238.568 323.276 238.332 323.612 238.148C323.948 237.964 324.296 237.872 324.656 237.872V239.12C324.544 239.096 324.412 239.084 324.26 239.084C323.996 239.084 323.714 239.162 323.414 239.318C323.114 239.474 322.9 239.652 322.772 239.852V243.8ZM330.396 243.8H329.136V243.176C328.688 243.688 328.064 243.944 327.264 243.944C326.736 243.944 326.268 243.774 325.86 243.434C325.452 243.094 325.248 242.624 325.248 242.024C325.248 241.408 325.45 240.94 325.854 240.62C326.258 240.3 326.728 240.14 327.264 240.14C328.088 240.14 328.712 240.388 329.136 240.884V240.02C329.136 239.684 329.012 239.42 328.764 239.228C328.516 239.036 328.188 238.94 327.78 238.94C327.132 238.94 326.56 239.184 326.064 239.672L325.548 238.796C326.204 238.172 327.016 237.86 327.984 237.86C328.696 237.86 329.276 238.028 329.724 238.364C330.172 238.7 330.396 239.232 330.396 239.96V243.8ZM327.756 243.08C328.388 243.08 328.848 242.88 329.136 242.48V241.604C328.848 241.204 328.388 241.004 327.756 241.004C327.396 241.004 327.1 241.1 326.868 241.292C326.636 241.484 326.52 241.736 326.52 242.048C326.52 242.36 326.636 242.61 326.868 242.798C327.1 242.986 327.396 243.08 327.756 243.08ZM337.12 243.8H335.86V240.176C335.86 239.376 335.472 238.976 334.696 238.976C334.392 238.976 334.108 239.052 333.844 239.204C333.58 239.356 333.368 239.54 333.208 239.756V243.8H331.948V238.004H333.208V238.796C333.424 238.54 333.712 238.32 334.072 238.136C334.432 237.952 334.824 237.86 335.248 237.86C335.864 237.86 336.33 238.02 336.646 238.34C336.962 238.66 337.12 239.12 337.12 239.72V243.8ZM344.012 243.8H342.752V243.008C342.272 243.632 341.652 243.944 340.892 243.944C340.132 243.944 339.512 243.672 339.032 243.128C338.552 242.584 338.312 241.844 338.312 240.908C338.312 239.98 338.552 239.24 339.032 238.688C339.512 238.136 340.132 237.86 340.892 237.86C341.652 237.86 342.272 238.176 342.752 238.808V235.796H344.012V243.8ZM341.252 242.828C341.548 242.828 341.836 242.756 342.116 242.612C342.396 242.468 342.608 242.284 342.752 242.06V239.756C342.608 239.532 342.396 239.346 342.116 239.198C341.836 239.05 341.548 238.976 341.252 238.976C340.756 238.976 340.36 239.156 340.064 239.516C339.768 239.876 339.62 240.34 339.62 240.908C339.62 241.476 339.768 241.938 340.064 242.294C340.36 242.65 340.756 242.828 341.252 242.828ZM346.8 243.692C346.632 243.852 346.436 243.932 346.212 243.932C345.988 243.932 345.792 243.85 345.624 243.686C345.456 243.522 345.372 243.324 345.372 243.092C345.372 242.86 345.456 242.662 345.624 242.498C345.792 242.334 345.988 242.252 346.212 242.252C346.436 242.252 346.632 242.334 346.8 242.498C346.968 242.662 347.052 242.86 347.052 243.092C347.052 243.324 346.968 243.524 346.8 243.692ZM349.684 243.8H348.424V235.796H349.684V243.8ZM351.86 237.296C351.652 237.296 351.47 237.22 351.314 237.068C351.158 236.916 351.08 236.732 351.08 236.516C351.08 236.3 351.158 236.116 351.314 235.964C351.47 235.812 351.652 235.736 351.86 235.736C352.076 235.736 352.26 235.812 352.412 235.964C352.564 236.116 352.64 236.3 352.64 236.516C352.64 236.732 352.564 236.916 352.412 237.068C352.26 237.22 352.076 237.296 351.86 237.296ZM352.496 243.8H351.236V238.004H352.496V243.8ZM359.22 243.8H357.96V240.176C357.96 239.376 357.572 238.976 356.796 238.976C356.492 238.976 356.208 239.052 355.944 239.204C355.68 239.356 355.468 239.54 355.308 239.756V243.8H354.048V238.004H355.308V238.796C355.524 238.54 355.812 238.32 356.172 238.136C356.532 237.952 356.924 237.86 357.348 237.86C357.964 237.86 358.43 238.02 358.746 238.34C359.062 238.66 359.22 239.12 359.22 239.72V243.8ZM366.196 243.8H364.612L362.836 241.412L362.032 242.24V243.8H360.772V235.796H362.032V240.8L364.588 238.004H366.148L363.736 240.632L366.196 243.8ZM367.124 244.04H366.188L369.032 235.556H369.968L367.124 244.04ZM377.256 243.8H375.528L372.84 240.428L372.144 241.244V243.8H370.74V235.796H372.144V239.612L375.276 235.796H377.016L373.764 239.576L377.256 243.8ZM380.392 243.944C379.512 243.944 378.786 243.662 378.214 243.098C377.642 242.534 377.356 241.8 377.356 240.896C377.356 240.048 377.634 239.33 378.19 238.742C378.746 238.154 379.448 237.86 380.296 237.86C381.152 237.86 381.842 238.156 382.366 238.748C382.89 239.34 383.152 240.096 383.152 241.016V241.316H378.676C378.724 241.772 378.912 242.152 379.24 242.456C379.568 242.76 379.996 242.912 380.524 242.912C380.82 242.912 381.118 242.856 381.418 242.744C381.718 242.632 381.968 242.476 382.168 242.276L382.744 243.104C382.16 243.664 381.376 243.944 380.392 243.944ZM381.928 240.428C381.912 240.028 381.766 239.672 381.49 239.36C381.214 239.048 380.816 238.892 380.296 238.892C379.8 238.892 379.412 239.046 379.132 239.354C378.852 239.662 378.696 240.02 378.664 240.428H381.928ZM384.068 246.068L384.26 244.94C384.404 245.004 384.564 245.036 384.74 245.036C385.148 245.036 385.424 244.868 385.568 244.532L385.856 243.872L383.48 238.004H384.824L386.516 242.348L388.208 238.004H389.564L386.768 244.844C386.424 245.7 385.76 246.136 384.776 246.152C384.512 246.152 384.276 246.124 384.068 246.068ZM396.648 243.8H395.328L393.984 239.552L392.64 243.8H391.32L389.52 238.004H390.828L392.052 242.216L393.432 238.004H394.536L395.916 242.216L397.14 238.004H398.448L396.648 243.8ZM401.86 243.944C400.964 243.944 400.244 243.65 399.7 243.062C399.156 242.474 398.884 241.752 398.884 240.896C398.884 240.04 399.156 239.32 399.7 238.736C400.244 238.152 400.964 237.86 401.86 237.86C402.764 237.86 403.488 238.152 404.032 238.736C404.576 239.32 404.848 240.04 404.848 240.896C404.848 241.76 404.576 242.484 404.032 243.068C403.488 243.652 402.764 243.944 401.86 243.944ZM401.86 242.828C402.38 242.828 402.79 242.642 403.09 242.27C403.39 241.898 403.54 241.44 403.54 240.896C403.54 240.36 403.39 239.906 403.09 239.534C402.79 239.162 402.38 238.976 401.86 238.976C401.348 238.976 400.942 239.162 400.642 239.534C400.342 239.906 400.192 240.36 400.192 240.896C400.192 241.44 400.342 241.898 400.642 242.27C400.942 242.642 401.348 242.828 401.86 242.828ZM407.3 243.8H406.04V238.004H407.3V238.856C407.524 238.568 407.804 238.332 408.14 238.148C408.476 237.964 408.824 237.872 409.184 237.872V239.12C409.072 239.096 408.94 239.084 408.788 239.084C408.524 239.084 408.242 239.162 407.942 239.318C407.642 239.474 407.428 239.652 407.3 239.852V243.8ZM415.464 243.8H414.204V243.008C413.724 243.632 413.104 243.944 412.344 243.944C411.584 243.944 410.964 243.672 410.484 243.128C410.004 242.584 409.764 241.844 409.764 240.908C409.764 239.98 410.004 239.24 410.484 238.688C410.964 238.136 411.584 237.86 412.344 237.86C413.104 237.86 413.724 238.176 414.204 238.808V235.796H415.464V243.8ZM412.704 242.828C413 242.828 413.288 242.756 413.568 242.612C413.848 242.468 414.06 242.284 414.204 242.06V239.756C414.06 239.532 413.848 239.346 413.568 239.198C413.288 239.05 413 238.976 412.704 238.976C412.208 238.976 411.812 239.156 411.516 239.516C411.22 239.876 411.072 240.34 411.072 240.908C411.072 241.476 411.22 241.938 411.516 242.294C411.812 242.65 412.208 242.828 412.704 242.828Z" fill="black"/>
<path d="M295 243.5C301.627 243.5 307 238.127 307 231.5C307 224.873 301.627 219.5 295 219.5C288.373 219.5 283 224.873 283 231.5C283 238.127 288.373 243.5 295 243.5Z" fill="#B94D4D"/>
<path fill-rule="evenodd" clip-rule="evenodd" d="M278 137H431C433.209 137 435 138.791 435 141V184C435 186.209 433.209 188 431 188H285.485L274 198V141C274 138.791 275.791 137 278 137Z" fill="white"/>
<path d="M413 152.3H316C314.343 152.3 313 153.643 313 155.3V156.95C313 158.607 314.343 159.95 316 159.95H413C414.657 159.95 416 158.607 416 156.95V155.3C416 153.643 414.657 152.3 413 152.3Z" fill="#DCA9A9"/>
<path fill-rule="evenodd" clip-rule="evenodd" d="M317.896 174.8H313.852V166.796H317.788C318.5 166.796 319.058 166.99 319.462 167.378C319.866 167.766 320.068 168.252 320.068 168.836C320.068 169.316 319.934 169.722 319.666 170.054C319.398 170.386 319.068 170.592 318.676 170.672C319.108 170.736 319.474 170.958 319.774 171.338C320.074 171.718 320.224 172.152 320.224 172.64C320.224 173.28 320.018 173.8 319.606 174.2C319.194 174.6 318.624 174.8 317.896 174.8ZM317.5 170.108C317.852 170.108 318.128 170.012 318.328 169.82C318.528 169.628 318.628 169.38 318.628 169.076C318.628 168.764 318.528 168.512 318.328 168.32C318.128 168.128 317.852 168.032 317.5 168.032H315.256V170.108H317.5ZM317.56 173.564C317.944 173.564 318.244 173.466 318.46 173.27C318.676 173.074 318.784 172.8 318.784 172.448C318.784 172.136 318.676 171.874 318.46 171.662C318.244 171.45 317.944 171.344 317.56 171.344H315.256V173.564H317.56ZM322.772 174.8H321.512V169.004H322.772V169.856C322.996 169.568 323.276 169.332 323.612 169.148C323.948 168.964 324.296 168.872 324.656 168.872V170.12C324.544 170.096 324.412 170.084 324.26 170.084C323.996 170.084 323.714 170.162 323.414 170.318C323.114 170.474 322.9 170.652 322.772 170.852V174.8ZM330.396 174.8H329.136V174.176C328.688 174.688 328.064 174.944 327.264 174.944C326.736 174.944 326.268 174.774 325.86 174.434C325.452 174.094 325.248 173.624 325.248 173.024C325.248 172.408 325.45 171.94 325.854 171.62C326.258 171.3 326.728 171.14 327.264 171.14C328.088 171.14 328.712 171.388 329.136 171.884V171.02C329.136 170.684 329.012 170.42 328.764 170.228C328.516 170.036 328.188 169.94 327.78 169.94C327.132 169.94 326.56 170.184 326.064 170.672L325.548 169.796C326.204 169.172 327.016 168.86 327.984 168.86C328.696 168.86 329.276 169.028 329.724 169.364C330.172 169.7 330.396 170.232 330.396 170.96V174.8ZM327.756 174.08C328.388 174.08 328.848 173.88 329.136 173.48V172.604C328.848 172.204 328.388 172.004 327.756 172.004C327.396 172.004 327.1 172.1 326.868 172.292C326.636 172.484 326.52 172.736 326.52 173.048C326.52 173.36 326.636 173.61 326.868 173.798C327.1 173.986 327.396 174.08 327.756 174.08ZM337.12 174.8H335.86V171.176C335.86 170.376 335.472 169.976 334.696 169.976C334.392 169.976 334.108 170.052 333.844 170.204C333.58 170.356 333.368 170.54 333.208 170.756V174.8H331.948V169.004H333.208V169.796C333.424 169.54 333.712 169.32 334.072 169.136C334.432 168.952 334.824 168.86 335.248 168.86C335.864 168.86 336.33 169.02 336.646 169.34C336.962 169.66 337.12 170.12 337.12 170.72V174.8ZM344.012 174.8H342.752V174.008C342.272 174.632 341.652 174.944 340.892 174.944C340.132 174.944 339.512 174.672 339.032 174.128C338.552 173.584 338.312 172.844 338.312 171.908C338.312 170.98 338.552 170.24 339.032 169.688C339.512 169.136 340.132 168.86 340.892 168.86C341.652 168.86 342.272 169.176 342.752 169.808V166.796H344.012V174.8ZM341.252 173.828C341.548 173.828 341.836 173.756 342.116 173.612C342.396 173.468 342.608 173.284 342.752 173.06V170.756C342.608 170.532 342.396 170.346 342.116 170.198C341.836 170.05 341.548 169.976 341.252 169.976C340.756 169.976 340.36 170.156 340.064 170.516C339.768 170.876 339.62 171.34 339.62 171.908C339.62 172.476 339.768 172.938 340.064 173.294C340.36 173.65 340.756 173.828 341.252 173.828ZM346.8 174.692C346.632 174.852 346.436 174.932 346.212 174.932C345.988 174.932 345.792 174.85 345.624 174.686C345.456 174.522 345.372 174.324 345.372 174.092C345.372 173.86 345.456 173.662 345.624 173.498C345.792 173.334 345.988 173.252 346.212 173.252C346.436 173.252 346.632 173.334 346.8 173.498C346.968 173.662 347.052 173.86 347.052 174.092C347.052 174.324 346.968 174.524 346.8 174.692ZM349.684 174.8H348.424V166.796H349.684V174.8ZM351.86 168.296C351.652 168.296 351.47 168.22 351.314 168.068C351.158 167.916 351.08 167.732 351.08 167.516C351.08 167.3 351.158 167.116 351.314 166.964C351.47 166.812 351.652 166.736 351.86 166.736C352.076 166.736 352.26 166.812 352.412 166.964C352.564 167.116 352.64 167.3 352.64 167.516C352.64 167.732 352.564 167.916 352.412 168.068C352.26 168.22 352.076 168.296 351.86 168.296ZM352.496 174.8H351.236V169.004H352.496V174.8ZM359.22 174.8H357.96V171.176C357.96 170.376 357.572 169.976 356.796 169.976C356.492 169.976 356.208 170.052 355.944 170.204C355.68 170.356 355.468 170.54 355.308 170.756V174.8H354.048V169.004H355.308V169.796C355.524 169.54 355.812 169.32 356.172 169.136C356.532 168.952 356.924 168.86 357.348 168.86C357.964 168.86 358.43 169.02 358.746 169.34C359.062 169.66 359.22 170.12 359.22 170.72V174.8ZM366.196 174.8H364.612L362.836 172.412L362.032 173.24V174.8H360.772V166.796H362.032V171.8L364.588 169.004H366.148L363.736 171.632L366.196 174.8ZM367.124 175.04H366.188L369.032 166.556H369.968L367.124 175.04ZM377.256 174.8H375.528L372.84 171.428L372.144 172.244V174.8H370.74V166.796H372.144V170.612L375.276 166.796H377.016L373.764 170.576L377.256 174.8ZM380.392 174.944C379.512 174.944 378.786 174.662 378.214 174.098C377.642 173.534 377.356 172.8 377.356 171.896C377.356 171.048 377.634 170.33 378.19 169.742C378.746 169.154 379.448 168.86 380.296 168.86C381.152 168.86 381.842 169.156 382.366 169.748C382.89 170.34 383.152 171.096 383.152 172.016V172.316H378.676C378.724 172.772 378.912 173.152 379.24 173.456C379.568 173.76 379.996 173.912 380.524 173.912C380.82 173.912 381.118 173.856 381.418 173.744C381.718 173.632 381.968 173.476 382.168 173.276L382.744 174.104C382.16 174.664 381.376 174.944 380.392 174.944ZM381.928 171.428C381.912 171.028 381.766 170.672 381.49 170.36C381.214 170.048 380.816 169.892 380.296 169.892C379.8 169.892 379.412 170.046 379.132 170.354C378.852 170.662 378.696 171.02 378.664 171.428H381.928ZM384.068 177.068L384.26 175.94C384.404 176.004 384.564 176.036 384.74 176.036C385.148 176.036 385.424 175.868 385.568 175.532L385.856 174.872L383.48 169.004H384.824L386.516 173.348L388.208 169.004H389.564L386.768 175.844C386.424 176.7 385.76 177.136 384.776 177.152C384.512 177.152 384.276 177.124 384.068 177.068ZM396.648 174.8H395.328L393.984 170.552L392.64 174.8H391.32L389.52 169.004H390.828L392.052 173.216L393.432 169.004H394.536L395.916 173.216L397.14 169.004H398.448L396.648 174.8ZM401.86 174.944C400.964 174.944 400.244 174.65 399.7 174.062C399.156 173.474 398.884 172.752 398.884 171.896C398.884 171.04 399.156 170.32 399.7 169.736C400.244 169.152 400.964 168.86 401.86 168.86C402.764 168.86 403.488 169.152 404.032 169.736C404.576 170.32 404.848 171.04 404.848 171.896C404.848 172.76 404.576 173.484 404.032 174.068C403.488 174.652 402.764 174.944 401.86 174.944ZM401.86 173.828C402.38 173.828 402.79 173.642 403.09 173.27C403.39 172.898 403.54 172.44 403.54 171.896C403.54 171.36 403.39 170.906 403.09 170.534C402.79 170.162 402.38 169.976 401.86 169.976C401.348 169.976 400.942 170.162 400.642 170.534C400.342 170.906 400.192 171.36 400.192 171.896C400.192 172.44 400.342 172.898 400.642 173.27C400.942 173.642 401.348 173.828 401.86 173.828ZM407.3 174.8H406.04V169.004H407.3V169.856C407.524 169.568 407.804 169.332 408.14 169.148C408.476 168.964 408.824 168.872 409.184 168.872V170.12C409.072 170.096 408.94 170.084 408.788 170.084C408.524 170.084 408.242 170.162 407.942 170.318C407.642 170.474 407.428 170.652 407.3 170.852V174.8ZM415.464 174.8H414.204V174.008C413.724 174.632 413.104 174.944 412.344 174.944C411.584 174.944 410.964 174.672 410.484 174.128C410.004 173.584 409.764 172.844 409.764 171.908C409.764 170.98 410.004 170.24 410.484 169.688C410.964 169.136 411.584 168.86 412.344 168.86C413.104 168.86 413.724 169.176 414.204 169.808V166.796H415.464V174.8ZM412.704 173.828C413 173.828 413.288 173.756 413.568 173.612C413.848 173.468 414.06 173.284 414.204 173.06V170.756C414.06 170.532 413.848 170.346 413.568 170.198C413.288 170.05 413 169.976 412.704 169.976C412.208 169.976 411.812 170.156 411.516 170.516C411.22 170.876 411.072 171.34 411.072 171.908C411.072 172.476 411.22 172.938 411.516 173.294C411.812 173.65 412.208 173.828 412.704 173.828Z" fill="black"/>
<path d="M295 174.5C301.627 174.5 307 169.127 307 162.5C307 155.873 301.627 150.5 295 150.5C288.373 150.5 283 155.873 283 162.5C283 169.127 288.373 174.5 295 174.5Z" fill="#B94D4D"/>
<path fill-rule="evenodd" clip-rule="evenodd" d="M278 68H431C433.209 68 435 69.7909 435 72V115C435 117.209 433.209 119 431 119H285.485L274 129V72C274 69.7909 275.791 68 278 68Z" fill="white"/>
<path d="M413 83.2998H316C314.343 83.2998 313 84.643 313 86.2998V87.9498C313 89.6067 314.343 90.9498 316 90.9498H413C414.657 90.9498 416 89.6067 416 87.9498V86.2998C416 84.643 414.657 83.2998 413 83.2998Z" fill="#DCA9A9"/>
<path fill-rule="evenodd" clip-rule="evenodd" d="M317.896 105.8H313.852V97.7957H317.788C318.5 97.7957 319.058 97.9897 319.462 98.3777C319.866 98.7657 320.068 99.2517 320.068 99.8357C320.068 100.316 319.934 100.722 319.666 101.054C319.398 101.386 319.068 101.592 318.676 101.672C319.108 101.736 319.474 101.958 319.774 102.338C320.074 102.718 320.224 103.152 320.224 103.64C320.224 104.28 320.018 104.8 319.606 105.2C319.194 105.6 318.624 105.8 317.896 105.8ZM317.5 101.108C317.852 101.108 318.128 101.012 318.328 100.82C318.528 100.628 318.628 100.38 318.628 100.076C318.628 99.7637 318.528 99.5117 318.328 99.3197C318.128 99.1277 317.852 99.0317 317.5 99.0317H315.256V101.108H317.5ZM317.56 104.564C317.944 104.564 318.244 104.466 318.46 104.27C318.676 104.074 318.784 103.8 318.784 103.448C318.784 103.136 318.676 102.874 318.46 102.662C318.244 102.45 317.944 102.344 317.56 102.344H315.256V104.564H317.56ZM322.772 105.8H321.512V100.004H322.772V100.856C322.996 100.568 323.276 100.332 323.612 100.148C323.948 99.9637 324.296 99.8717 324.656 99.8717V101.12C324.544 101.096 324.412 101.084 324.26 101.084C323.996 101.084 323.714 101.162 323.414 101.318C323.114 101.474 322.9 101.652 322.772 101.852V105.8ZM330.396 105.8H329.136V105.176C328.688 105.688 328.064 105.944 327.264 105.944C326.736 105.944 326.268 105.774 325.86 105.434C325.452 105.094 325.248 104.624 325.248 104.024C325.248 103.408 325.45 102.94 325.854 102.62C326.258 102.3 326.728 102.14 327.264 102.14C328.088 102.14 328.712 102.388 329.136 102.884V102.02C329.136 101.684 329.012 101.42 328.764 101.228C328.516 101.036 328.188 100.94 327.78 100.94C327.132 100.94 326.56 101.184 326.064 101.672L325.548 100.796C326.204 100.172 327.016 99.8597 327.984 99.8597C328.696 99.8597 329.276 100.028 329.724 100.364C330.172 100.7 330.396 101.232 330.396 101.96V105.8ZM327.756 105.08C328.388 105.08 328.848 104.88 329.136 104.48V103.604C328.848 103.204 328.388 103.004 327.756 103.004C327.396 103.004 327.1 103.1 326.868 103.292C326.636 103.484 326.52 103.736 326.52 104.048C326.52 104.36 326.636 104.61 326.868 104.798C327.1 104.986 327.396 105.08 327.756 105.08ZM337.12 105.8H335.86V102.176C335.86 101.376 335.472 100.976 334.696 100.976C334.392 100.976 334.108 101.052 333.844 101.204C333.58 101.356 333.368 101.54 333.208 101.756V105.8H331.948V100.004H333.208V100.796C333.424 100.54 333.712 100.32 334.072 100.136C334.432 99.9517 334.824 99.8597 335.248 99.8597C335.864 99.8597 336.33 100.02 336.646 100.34C336.962 100.66 337.12 101.12 337.12 101.72V105.8ZM344.012 105.8H342.752V105.008C342.272 105.632 341.652 105.944 340.892 105.944C340.132 105.944 339.512 105.672 339.032 105.128C338.552 104.584 338.312 103.844 338.312 102.908C338.312 101.98 338.552 101.24 339.032 100.688C339.512 100.136 340.132 99.8597 340.892 99.8597C341.652 99.8597 342.272 100.176 342.752 100.808V97.7957H344.012V105.8ZM341.252 104.828C341.548 104.828 341.836 104.756 342.116 104.612C342.396 104.468 342.608 104.284 342.752 104.06V101.756C342.608 101.532 342.396 101.346 342.116 101.198C341.836 101.05 341.548 100.976 341.252 100.976C340.756 100.976 340.36 101.156 340.064 101.516C339.768 101.876 339.62 102.34 339.62 102.908C339.62 103.476 339.768 103.938 340.064 104.294C340.36 104.65 340.756 104.828 341.252 104.828ZM346.8 105.692C346.632 105.852 346.436 105.932 346.212 105.932C345.988 105.932 345.792 105.85 345.624 105.686C345.456 105.522 345.372 105.324 345.372 105.092C345.372 104.86 345.456 104.662 345.624 104.498C345.792 104.334 345.988 104.252 346.212 104.252C346.436 104.252 346.632 104.334 346.8 104.498C346.968 104.662 347.052 104.86 347.052 105.092C347.052 105.324 346.968 105.524 346.8 105.692ZM349.684 105.8H348.424V97.7957H349.684V105.8ZM351.86 99.2957C351.652 99.2957 351.47 99.2197 351.314 99.0677C351.158 98.9157 351.08 98.7317 351.08 98.5157C351.08 98.2997 351.158 98.1157 351.314 97.9637C351.47 97.8117 351.652 97.7357 351.86 97.7357C352.076 97.7357 352.26 97.8117 352.412 97.9637C352.564 98.1157 352.64 98.2997 352.64 98.5157C352.64 98.7317 352.564 98.9157 352.412 99.0677C352.26 99.2197 352.076 99.2957 351.86 99.2957ZM352.496 105.8H351.236V100.004H352.496V105.8ZM359.22 105.8H357.96V102.176C357.96 101.376 357.572 100.976 356.796 100.976C356.492 100.976 356.208 101.052 355.944 101.204C355.68 101.356 355.468 101.54 355.308 101.756V105.8H354.048V100.004H355.308V100.796C355.524 100.54 355.812 100.32 356.172 100.136C356.532 99.9517 356.924 99.8597 357.348 99.8597C357.964 99.8597 358.43 100.02 358.746 100.34C359.062 100.66 359.22 101.12 359.22 101.72V105.8ZM366.196 105.8H364.612L362.836 103.412L362.032 104.24V105.8H360.772V97.7957H362.032V102.8L364.588 100.004H366.148L363.736 102.632L366.196 105.8ZM367.124 106.04H366.188L369.032 97.5557H369.968L367.124 106.04ZM377.256 105.8H375.528L372.84 102.428L372.144 103.244V105.8H370.74V97.7957H372.144V101.612L375.276 97.7957H377.016L373.764 101.576L377.256 105.8ZM380.392 105.944C379.512 105.944 378.786 105.662 378.214 105.098C377.642 104.534 377.356 103.8 377.356 102.896C377.356 102.048 377.634 101.33 378.19 100.742C378.746 100.154 379.448 99.8597 380.296 99.8597C381.152 99.8597 381.842 100.156 382.366 100.748C382.89 101.34 383.152 102.096 383.152 103.016V103.316H378.676C378.724 103.772 378.912 104.152 379.24 104.456C379.568 104.76 379.996 104.912 380.524 104.912C380.82 104.912 381.118 104.856 381.418 104.744C381.718 104.632 381.968 104.476 382.168 104.276L382.744 105.104C382.16 105.664 381.376 105.944 380.392 105.944ZM381.928 102.428C381.912 102.028 381.766 101.672 381.49 101.36C381.214 101.048 380.816 100.892 380.296 100.892C379.8 100.892 379.412 101.046 379.132 101.354C378.852 101.662 378.696 102.02 378.664 102.428H381.928ZM384.068 108.068L384.26 106.94C384.404 107.004 384.564 107.036 384.74 107.036C385.148 107.036 385.424 106.868 385.568 106.532L385.856 105.872L383.48 100.004H384.824L386.516 104.348L388.208 100.004H389.564L386.768 106.844C386.424 107.7 385.76 108.136 384.776 108.152C384.512 108.152 384.276 108.124 384.068 108.068ZM396.648 105.8H395.328L393.984 101.552L392.64 105.8H391.32L389.52 100.004H390.828L392.052 104.216L393.432 100.004H394.536L395.916 104.216L397.14 100.004H398.448L396.648 105.8ZM401.86 105.944C400.964 105.944 400.244 105.65 399.7 105.062C399.156 104.474 398.884 103.752 398.884 102.896C398.884 102.04 399.156 101.32 399.7 100.736C400.244 100.152 400.964 99.8597 401.86 99.8597C402.764 99.8597 403.488 100.152 404.032 100.736C404.576 101.32 404.848 102.04 404.848 102.896C404.848 103.76 404.576 104.484 404.032 105.068C403.488 105.652 402.764 105.944 401.86 105.944ZM401.86 104.828C402.38 104.828 402.79 104.642 403.09 104.27C403.39 103.898 403.54 103.44 403.54 102.896C403.54 102.36 403.39 101.906 403.09 101.534C402.79 101.162 402.38 100.976 401.86 100.976C401.348 100.976 400.942 101.162 400.642 101.534C400.342 101.906 400.192 102.36 400.192 102.896C400.192 103.44 400.342 103.898 400.642 104.27C400.942 104.642 401.348 104.828 401.86 104.828ZM407.3 105.8H406.04V100.004H407.3V100.856C407.524 100.568 407.804 100.332 408.14 100.148C408.476 99.9637 408.824 99.8717 409.184 99.8717V101.12C409.072 101.096 408.94 101.084 408.788 101.084C408.524 101.084 408.242 101.162 407.942 101.318C407.642 101.474 407.428 101.652 407.3 101.852V105.8ZM415.464 105.8H414.204V105.008C413.724 105.632 413.104 105.944 412.344 105.944C411.584 105.944 410.964 105.672 410.484 105.128C410.004 104.584 409.764 103.844 409.764 102.908C409.764 101.98 410.004 101.24 410.484 100.688C410.964 100.136 411.584 99.8597 412.344 99.8597C413.104 99.8597 413.724 100.176 414.204 100.808V97.7957H415.464V105.8ZM412.704 104.828C413 104.828 413.288 104.756 413.568 104.612C413.848 104.468 414.06 104.284 414.204 104.06V101.756C414.06 101.532 413.848 101.346 413.568 101.198C413.288 101.05 413 100.976 412.704 100.976C412.208 100.976 411.812 101.156 411.516 101.516C411.22 101.876 411.072 102.34 411.072 102.908C411.072 103.476 411.22 103.938 411.516 104.294C411.812 104.65 412.208 104.828 412.704 104.828Z" fill="black"/>
<path d="M295 105.5C301.627 105.5 307 100.127 307 93.5C307 86.8726 301.627 81.5 295 81.5C288.373 81.5 283 86.8726 283 93.5C283 100.127 288.373 105.5 295 105.5Z" fill="#B94D4D"/>
<path fill-rule="evenodd" clip-rule="evenodd" d="M474.17 182.171C477.035 181.821 480.092 181.945 482.756 183.075C488.421 185.48 490.031 192.172 489.953 197.612C489.869 203.466 488.626 209.861 493.077 214.578C495.123 216.747 497.668 218.406 499.678 220.615C501.824 222.975 503.509 225.675 504.756 228.575C507.046 233.901 508.17 240.165 506.076 245.752C504.232 250.672 499.593 255.112 500.596 260.706C501.641 266.541 507.524 271.002 511.203 275.349C515.365 280.267 519.198 286.554 519.828 293.005C520.431 299.186 517.741 305.438 513.611 310.111C505.36 319.449 492.957 324.026 480.452 323.998C475.142 323.986 469.131 323.746 464.549 320.893C463.133 320.011 462.385 319.021 461.544 317.646C460.789 316.412 459.792 315.61 458.638 314.737C456.102 312.82 454.271 310.237 453.102 307.345C448.564 296.112 452.191 282.216 458.543 272.241C460.048 269.878 461.281 267.604 460.55 264.787C459.787 261.846 457.911 259.194 456.252 256.667C454.613 254.169 452.742 251.785 451.461 249.085C450.119 246.255 449.741 243.292 449.978 240.196C450.424 234.379 452.935 229.012 456.49 224.334C459.914 219.828 463.934 215.517 463.943 209.613C463.953 203.355 459.77 197.789 461.552 191.427C462.29 188.793 463.772 186.09 466.161 184.511C468.451 182.996 471.476 182.5 474.17 182.171Z" fill="#3CC9C9"/>
<path fill-rule="evenodd" clip-rule="evenodd" d="M472.298 192.174C472.352 191.334 473.349 190.83 474.134 191.049C475.167 191.338 475.147 192.303 475.119 193.163C475.036 195.806 475.418 198.375 476.054 200.94C477.374 206.272 479.815 211.184 481.748 216.306C483.68 221.424 484.587 226.707 483.454 232.122C482.385 237.228 480.707 242.201 479.614 247.313C478.65 251.819 477.624 256.571 479.092 261.065C480.504 265.391 483.626 268.914 485.875 272.823C490.529 280.916 492.593 289.894 492.87 299.133C492.998 303.424 492.882 307.753 491.887 311.961C491.314 314.384 490.544 317.658 488.468 319.331C487.511 320.103 485.873 320.369 485.067 319.227C484.311 318.156 484.974 316.497 485.215 315.355C486.255 310.411 486.464 305.359 486.215 300.34C485.974 295.478 485.4 290.624 483.869 285.98C482.449 281.671 480.291 277.8 477.752 274.031C475.164 270.189 472.474 266.339 471.405 261.787C470.319 257.164 471.201 252.46 472.381 247.925C473.629 243.129 475.264 238.47 476.954 233.803C478.601 229.256 479.184 224.953 478.275 220.194C476.479 210.792 471.672 201.966 472.298 192.174Z" fill="#1B9393"/>
<path fill-rule="evenodd" clip-rule="evenodd" d="M549.804 193.58C553.349 194.657 556.87 196.393 559.397 199.116C564.77 204.907 563.121 213.659 560.155 220.051C556.963 226.931 552.124 233.847 554.852 241.741C556.105 245.37 558.213 248.657 559.402 252.314C560.673 256.222 561.221 260.292 561.151 264.37C561.022 271.86 559.03 279.853 553.62 285.371C548.857 290.23 541.07 293.068 539.289 300.204C537.431 307.649 541.973 315.986 543.99 323.04C546.272 331.022 547.445 340.451 544.774 348.407C542.215 356.032 535.754 362.026 528.44 365.404C513.827 372.154 496.861 371.115 482.208 364.576C475.987 361.8 469.063 358.389 465.197 352.631C464.002 350.851 463.649 349.292 463.388 347.228C463.155 345.376 462.409 343.909 461.517 342.276C459.556 338.69 458.774 334.682 458.932 330.654C459.547 315.009 471.146 300.462 483.868 291.97C486.883 289.958 489.53 287.91 490.161 284.198C490.821 280.324 490.023 276.211 489.413 272.359C488.811 268.552 487.876 264.761 487.801 260.9C487.723 256.856 488.846 253.155 490.76 249.617C494.357 242.97 500.14 237.928 506.782 234.245C513.179 230.698 520.174 227.691 523.305 220.713C526.624 213.318 524.659 204.559 530.112 197.962C532.37 195.231 535.537 192.805 539.174 192.18C542.661 191.581 546.471 192.568 549.804 193.58Z" fill="#58BDBD"/>
<path fill-rule="evenodd" clip-rule="evenodd" d="M542.563 205.809C543.066 204.842 544.496 204.767 545.299 205.438C546.355 206.322 545.827 207.454 545.344 208.458C543.862 211.545 542.964 214.787 542.364 218.157C541.116 225.164 541.397 232.261 540.975 239.339C540.554 246.412 538.847 253.145 534.686 258.963C530.763 264.45 526.195 269.46 522.239 274.941C518.753 279.771 515.065 284.861 514.428 290.952C513.813 296.815 515.619 302.624 516.2 308.432C517.404 320.455 515.116 332.169 510.6 343.255C508.503 348.403 506.101 353.47 502.733 357.932C500.794 360.501 498.179 363.975 494.876 364.867C493.352 365.279 491.298 364.737 490.954 362.962C490.63 361.296 492.275 359.68 493.154 358.453C496.959 353.144 499.85 347.271 502.187 341.196C504.452 335.312 506.322 329.263 506.965 322.962C507.561 317.114 507.065 311.399 506.07 305.604C505.056 299.699 503.927 293.73 505.061 287.779C506.212 281.734 509.707 276.626 513.462 271.874C517.434 266.848 521.785 262.188 526.205 257.547C530.512 253.025 533.448 248.236 534.878 242.124C537.702 230.047 536.703 217.076 542.563 205.809Z" fill="#1B9393"/>
<path fill-rule="evenodd" clip-rule="evenodd" d="M440.218 237.998C446.112 237.998 451.294 241.122 454.865 245.556C459.045 250.746 459.889 257.084 461.587 263.27C462.431 266.348 463.884 269.404 466.429 271.496C468.745 273.398 471.684 273.778 474.456 274.708C479.994 276.565 484.467 281.039 486.233 286.498C488.388 293.156 486.106 299.871 486.499 306.62C486.859 312.817 492.97 316.683 497.886 319.654C502.734 322.584 507.101 325.326 508.561 331.033C510.109 337.086 510.628 343.842 508.484 349.821C504.914 359.777 494.465 364.161 484.368 364.841C475.205 365.457 463.684 364.489 456.803 357.838C452.685 353.858 451.194 348.291 451.379 342.753C451.494 339.309 452.176 335.897 453.058 332.569C453.683 330.211 454.528 327.862 454.768 325.425C455.408 318.94 449.415 317.695 444.313 315.914C437.83 313.652 433.292 309.378 430.136 303.423C427.197 297.88 425.964 291.656 427.726 285.552C428.626 282.436 430.258 279.608 432.471 277.203C433.445 276.144 434.819 275.261 435.698 274.149C436.519 273.11 436.34 271.764 436.057 270.548C434.749 264.929 430.674 260.276 429.217 254.666C427.901 249.603 428.679 243.302 433.308 240.036C435.307 238.625 437.774 238.014 440.218 237.998Z" fill="#54ACAC"/>
<path fill-rule="evenodd" clip-rule="evenodd" d="M448.25 252.639C454.497 259.294 456.195 268.323 456.694 277.074C456.973 281.981 456.682 287.157 458.124 291.917C459.357 295.991 462.249 299.105 465.23 302.049C471.231 307.973 477.923 313.997 479.678 322.572C480.708 327.604 480.013 332.802 481.436 337.778C482.73 342.302 485.008 346.746 487.779 350.566C490.01 353.643 492.916 355.998 495.355 358.865C496.099 359.741 497.165 361.029 496.858 362.265C496.499 363.712 494.655 364.17 493.347 363.943C490.298 363.413 487.731 360.501 485.737 358.384C482.822 355.289 480.344 351.96 478.331 348.225C476.095 344.078 474.295 339.677 473.526 335.024C472.728 330.197 473.125 325.166 471.303 320.533C468.236 312.738 460.798 308.138 455.42 302.062C448.72 294.492 449.719 285.07 450.405 275.757C450.782 270.639 451.157 264.86 448.571 260.188C447.584 258.404 445.383 256.741 444.959 254.714C444.57 252.856 446.692 250.979 448.25 252.639Z" fill="#1B9393"/>
<path fill-rule="evenodd" clip-rule="evenodd" d="M454.912 361.998C454.912 400.057 461.123 419.998 493.912 419.998C526.701 419.998 532.912 400.057 532.912 361.998H454.912Z" fill="#B94D4D"/>
<path fill-rule="evenodd" clip-rule="evenodd" d="M131.057 153.341C126.686 148.193 123.728 141.883 124.222 134.812C125.646 114.441 153.903 118.922 159.4 129.204C164.896 139.486 164.243 165.567 157.139 167.404C154.306 168.137 148.271 166.342 142.129 162.626L145.984 190H123.22L131.057 153.341Z" fill="#FFCB9B"/>
<path fill-rule="evenodd" clip-rule="evenodd" d="M161.549 133.821C161.324 132.488 160.773 131.008 160.328 129.747C159.755 128.122 158.887 126.656 157.932 125.275C156.135 122.674 153.978 120.326 151.598 118.377C147.249 114.817 141.713 112.764 136.269 113.431C133.521 113.767 130.852 114.819 128.582 116.571C126.53 118.153 124.556 120.482 121.899 120.65C119.008 120.832 116.358 118.271 114.04 116.689C111.426 114.907 108.645 113.607 105.59 113.102C100.472 112.257 95.6634 113.992 92.1361 118.206C88.3825 122.691 85.6539 129.267 88.1189 135.209C88.5771 136.314 89.1665 137.245 90.0125 138.017C90.7884 138.725 91.9733 139.478 92.2879 140.609C92.622 141.811 91.6239 143.361 91.2369 144.446C90.6824 146 90.2271 147.631 90.389 149.32C90.6549 152.094 92.3918 154.742 94.2259 156.565C96.0924 158.42 98.3895 159.484 100.843 159.974C102.481 160.302 104.156 160.483 105.821 160.36C106.647 160.299 107.377 160.068 108.178 159.885C108.956 159.707 109.392 159.914 110.052 160.343C113.122 162.334 116.422 163.105 119.967 162.809C122.958 162.559 126.405 161.831 128.846 159.774C131.556 157.49 131.502 154.34 130.864 150.974C131.54 151.31 133.409 151.518 132.292 150.179C131.849 149.649 131.013 149.433 130.446 149.121C129.785 148.757 129.113 148.288 128.6 147.695C126.527 145.303 128.621 140.433 131.226 139.631C135.096 138.439 135.963 143.932 138.726 145.353C140.314 146.17 141.976 145.053 143.167 143.913C144.761 142.385 145.847 140.362 146.786 138.303C147.558 136.607 148.278 134.887 149.065 133.2C149.433 132.412 150.706 130.184 150.067 129.293C152.839 128.738 155.927 129.894 158.314 131.411C159.301 132.037 160.053 132.728 160.58 133.835C160.693 134.072 160.938 134.777 161.246 134.806C161.82 134.859 161.606 134.156 161.549 133.821Z" fill="#0A160F"/>
<path fill-rule="evenodd" clip-rule="evenodd" d="M82.8492 310.067H156.108L165.707 428.067H56.6553L82.8492 310.067Z" fill="#C5CFD6"/>
<path fill-rule="evenodd" clip-rule="evenodd" d="M82.8492 310.067H105.38L118.866 428.067H56.6553L82.8492 310.067Z" fill="black" fill-opacity="0.1"/>
<path fill-rule="evenodd" clip-rule="evenodd" d="M240.056 289.801C247.881 285.083 261.01 291.145 261.001 297.893C260.974 318.083 242.624 413.24 241.666 419.256C240.708 425.271 230.445 426.86 229.848 419.276C228.897 407.207 227.13 365.429 228.898 346.092C229.627 338.11 230.413 330.508 231.187 323.726C221.558 341.186 206.667 366.186 186.514 398.724L175.573 393.704C184.165 365.279 191.209 345.212 196.708 333.503C206.122 313.453 214.95 296.284 218.665 290.236C224.509 280.723 234.681 284.042 240.056 289.801Z" fill="#FFCB9B"/>
<path fill-rule="evenodd" clip-rule="evenodd" d="M176.355 377.919L213.906 288.59C222.902 274.059 248.124 291.547 245.056 299.975C238.091 319.11 202.67 381.056 200.594 386.757C191.128 383.305 185.821 381.37 176.355 377.919Z" fill="black"/>
<path fill-rule="evenodd" clip-rule="evenodd" d="M174.227 388.11C171.935 390.003 170.441 391.552 169.745 392.757C168.889 394.241 167.886 396.549 166.738 399.681C168.46 400.675 183.941 409.613 213.181 426.495C216.689 423.205 217.235 420.651 214.818 418.831C212.402 417.012 210.407 415.478 208.835 414.229L192.83 392.192C192.505 391.745 191.88 391.646 191.433 391.97C191.425 391.976 191.418 391.981 191.411 391.987L188.122 394.518C185.067 394.25 182.787 393.682 181.282 392.813C180.074 392.116 178.689 390.674 177.128 388.489L177.128 388.489C176.486 387.59 175.237 387.382 174.338 388.024C174.3 388.051 174.263 388.08 174.227 388.11Z" fill="#E4E4E4"/>
<path fill-rule="evenodd" clip-rule="evenodd" d="M227.408 414.436C226.37 417.221 225.851 419.31 225.851 420.701C225.851 422.414 226.136 424.914 226.708 428.201C228.697 428.201 246.573 428.201 280.335 428.201C281.729 423.598 280.925 421.113 277.922 420.746C274.92 420.379 272.425 420.047 270.439 419.751L245.559 408.669C245.055 408.445 244.464 408.671 244.239 409.176C244.235 409.184 244.232 409.193 244.228 409.201L242.645 413.038C239.866 414.333 237.607 414.981 235.869 414.981C234.474 414.981 232.555 414.425 230.11 413.313L230.11 413.313C229.104 412.856 227.919 413.3 227.461 414.306C227.442 414.349 227.424 414.392 227.408 414.436Z" fill="#E4E4E4"/>
<path fill-rule="evenodd" clip-rule="evenodd" d="M263.632 304.756C263.632 330.1 251.646 389.219 251.639 394.799L225.85 394.819C229.625 342.068 230.963 315.409 229.866 314.841C228.219 313.988 162.367 321.443 142.617 321.443C114.138 321.443 102.356 303.409 101.4 270H157.817C169.304 271.234 229.222 283.37 251.474 287.542C261 289.328 263.632 297.775 263.632 304.756Z" fill="black"/>
<path fill-rule="evenodd" clip-rule="evenodd" d="M194.692 253.345L223.346 277.705C231.383 280.496 238.035 283.734 243.301 287.418C244.517 288.696 245.919 291.209 240.563 290.416C235.208 289.623 229.539 289.031 228.667 290.82C227.796 292.61 230.901 295.041 229.226 297.42C228.109 299.007 223.668 294.521 215.904 283.963L186.861 269.428L194.692 253.345ZM64.9416 242.804L81.754 245.252C63.7074 284.516 54.0324 305.282 52.729 307.548C49.7964 312.647 53.2454 321.528 54.5937 326.229C47.7798 328.202 49.9559 317.645 41.3402 320.278C33.4762 322.682 26.9867 328.13 19.1981 321.651C18.2405 320.855 17.4339 318.25 20.4775 316.733C28.0601 312.952 39.1932 306.033 40.9238 303.483C43.2838 300.006 51.2897 279.78 64.9416 242.804Z" fill="#FFCB9B"/>
<path fill-rule="evenodd" clip-rule="evenodd" d="M135.21 174.075L145.627 170.62C159.759 206.021 180.834 240.272 216.047 269.203L207.34 284.268C176.393 265.988 147.097 251.787 135.21 224.356C131.22 215.149 134.884 185.083 135.21 174.075Z" fill="#FEFEFF"/>
<path fill-rule="evenodd" clip-rule="evenodd" d="M99.4297 273.705C129.272 276.878 152.76 276.878 169.896 273.705C172.019 273.312 172.354 269.748 171.37 267.329C156.038 229.657 145.524 196.786 145.524 170.62C142.711 172.042 137.787 172.255 130.754 171.26C111.851 198.224 103.163 229.164 99.4297 273.705Z" fill="#323337"/>
<path fill-rule="evenodd" clip-rule="evenodd" d="M126.054 169H133.932C135.766 179.817 141.551 326.308 159.411 374.229H62.7755C64.8705 330.33 81.3968 277.596 98.1381 233.468C83.3347 247.053 70.4323 270.07 59.431 302.521L41.3301 297.862C54.7887 239.706 82.4596 196.961 124.343 169.627C124.433 169.417 124.524 169.208 124.614 169H125.311C125.567 168.834 125.824 168.67 126.082 168.506L126.054 169Z" fill="#FEFEFF"/>
</svg>
