<svg width="16" height="16" viewBox="0 0 16 16" fill="none" xmlns="http://www.w3.org/2000/svg">
<path d="M2.34314 13.6569C5.46735 16.7811 10.5327 16.7811 13.6569 13.6569C16.781 10.5327 16.781 5.46735 13.6569 2.34314C10.5327 -0.781048 5.46735 -0.781048 2.34314 2.34314C-0.781048 5.46734 -0.781048 10.5327 2.34314 13.6569V13.6569ZM3.12415 12.8759C0.431261 10.183 0.431261 5.81702 3.12415 3.12413C5.81703 0.431248 10.183 0.431248 12.8759 3.12413C15.5688 5.81703 15.5688 10.183 12.8759 12.8759C10.183 15.5688 5.81704 15.5688 3.12415 12.8759V12.8759ZM3.90444 12.4588L9.21258 9.21257L12.4588 3.90444L12.0956 3.54121L6.78743 6.78742L3.54123 12.0956L3.90444 12.4588Z" fill="#54ACAC"/>
</svg>
