<svg width="16" height="16" viewBox="0 0 16 16" fill="none" xmlns="http://www.w3.org/2000/svg">
<path d="M14.0002 13.3333H13.3335V3.33325C13.3335 3.15644 13.2633 2.98687 13.1382 2.86185C13.0132 2.73682 12.8436 2.66659 12.6668 2.66659C12.49 2.66659 12.3204 2.73682 12.1954 2.86185C12.0704 2.98687 12.0002 3.15644 12.0002 3.33325V13.3333H10.6668V5.99992C10.6668 5.82311 10.5966 5.65354 10.4716 5.52851C10.3465 5.40349 10.177 5.33325 10.0002 5.33325C9.82335 5.33325 9.65378 5.40349 9.52876 5.52851C9.40373 5.65354 9.3335 5.82311 9.3335 5.99992V13.3333H8.00016V8.66659C8.00016 8.48977 7.92992 8.32021 7.8049 8.19518C7.67988 8.07016 7.51031 7.99992 7.3335 7.99992C7.15669 7.99992 6.98712 8.07016 6.86209 8.19518C6.73707 8.32021 6.66683 8.48977 6.66683 8.66659V13.3333H5.3335V11.3333C5.3335 11.1564 5.26326 10.9869 5.13823 10.8618C5.01321 10.7368 4.84364 10.6666 4.66683 10.6666C4.49002 10.6666 4.32045 10.7368 4.19543 10.8618C4.0704 10.9869 4.00016 11.1564 4.00016 11.3333V13.3333H2.66683V1.99992C2.66683 1.82311 2.59659 1.65354 2.47157 1.52851C2.34654 1.40349 2.17697 1.33325 2.00016 1.33325C1.82335 1.33325 1.65378 1.40349 1.52876 1.52851C1.40373 1.65354 1.3335 1.82311 1.3335 1.99992V13.9999C1.3335 14.1767 1.40373 14.3463 1.52876 14.4713C1.65378 14.5963 1.82335 14.6666 2.00016 14.6666H14.0002C14.177 14.6666 14.3465 14.5963 14.4716 14.4713C14.5966 14.3463 14.6668 14.1767 14.6668 13.9999C14.6668 13.8231 14.5966 13.6535 14.4716 13.5285C14.3465 13.4035 14.177 13.3333 14.0002 13.3333Z" fill="#54ACAC"/>
</svg>
