<svg width="121" height="205" viewBox="0 0 121 205" fill="none" xmlns="http://www.w3.org/2000/svg">
<path d="M31.0166 138.173V139.5C31.0185 141.698 31.8927 143.806 33.4472 145.36C35.0018 146.915 37.1097 147.789 39.3081 147.791H99.0072C101.206 147.79 103.315 146.916 104.869 145.362C106.424 143.807 107.298 141.698 107.299 139.5V138.173C107.303 136.233 106.622 134.353 105.375 132.866C104.96 132.373 104.491 131.928 103.975 131.54C103.975 131.54 71.1541 130.797 71.1541 129.881H39.3081C37.11 129.884 35.0028 130.759 33.4485 132.313C31.8942 133.868 31.0196 135.975 31.0166 138.173Z" fill="#CCCCCC"/>
<path d="M73.9494 147.461H65.3262V203.18H73.9494V147.461Z" fill="#CCCCCC"/>
<path d="M98.4925 202.878C98.4925 203.809 85.4254 203.238 69.3063 203.238C53.1872 203.238 40.1201 203.809 40.1201 202.878C40.1201 201.946 53.1872 194.557 69.3063 194.557C85.4254 194.557 98.4925 201.946 98.4925 202.878Z" fill="#CCCCCC"/>
<path d="M86.6369 137.048C87.2594 136.212 87.6912 135.251 87.9018 134.23C88.1125 133.21 88.0969 132.156 87.8561 131.143C87.6153 130.129 87.1553 129.181 86.5083 128.364C85.8613 127.548 85.0432 126.883 84.1115 126.417L65.8351 64.1406L51.918 70.9567L74.2593 130.029C73.58 131.646 73.5174 133.456 74.0835 135.116C74.6495 136.776 75.8049 138.171 77.3306 139.036C78.8563 139.901 80.6463 140.177 82.3616 139.81C84.0768 139.444 85.598 138.461 86.6369 137.048H86.6369Z" fill="#A0616A"/>
<path d="M69.9755 74.541L54.399 78.7576C53.9558 78.8776 53.4919 78.9006 53.039 78.8251C52.5861 78.7497 52.1548 78.5775 51.7745 78.3203C51.3941 78.0631 51.0736 77.727 50.8349 77.3348C50.5962 76.9426 50.4448 76.5036 50.391 76.0476L48.5083 60.0698C47.9072 57.7987 48.2312 55.382 49.4093 53.3495C50.5874 51.3169 52.5235 49.8345 54.7929 49.2273C57.0623 48.6201 59.48 48.9376 61.5156 50.1103C63.5513 51.2829 65.0389 53.2149 65.6522 55.4827L72.0692 70.1792C72.2528 70.6 72.3435 71.0555 72.3352 71.5146C72.3269 71.9737 72.2198 72.4255 72.0211 72.8395C71.8224 73.2534 71.5368 73.6197 71.1838 73.9133C70.8308 74.2069 70.4187 74.421 69.9755 74.541V74.541Z" fill="#6C63FF"/>
<path d="M90.7074 196.347L98.8391 196.346L102.708 175.255H90.7061L90.7074 196.347Z" fill="#FCD7B4"/>
<path d="M88.6328 193.692L104.648 193.691H104.649C105.989 193.691 107.316 193.955 108.554 194.468C109.793 194.981 110.918 195.733 111.866 196.68C112.813 197.628 113.565 198.753 114.078 199.991C114.591 201.23 114.855 202.557 114.855 203.897V204.229L88.6333 204.23L88.6328 193.692Z" fill="#2F2E41"/>
<path d="M100.147 185.037C100.052 185.037 99.9572 185.032 99.8617 185.023L88.6074 184.204C88.1522 184.161 87.7129 184.015 87.3232 183.776C86.9335 183.538 86.6039 183.212 86.3597 182.826C86.1156 182.439 85.9634 182.002 85.915 181.548C85.8666 181.093 85.9233 180.634 86.0806 180.204L101.142 146.365C101.25 146.063 101.294 145.743 101.272 145.423C101.249 145.104 101.161 144.792 101.012 144.509C100.864 144.222 100.657 143.969 100.404 143.768C100.151 143.567 99.8584 143.421 99.5454 143.341C92.4629 141.49 74.2914 136.56 58.5611 130.793C51.8218 128.321 47.5772 124.75 45.9455 120.178C43.7942 114.151 46.9767 108.654 47.1133 108.423L47.22 108.242L62.0218 109.588L78.0684 110.952L113.233 129.809C116.18 131.403 118.418 134.048 119.502 137.217C120.586 140.387 120.437 143.848 119.083 146.913L102.871 183.268C102.636 183.794 102.254 184.241 101.771 184.555C101.287 184.869 100.723 185.037 100.147 185.037V185.037Z" fill="#2F2E41"/>
<path d="M64.5956 42.6394C73.5934 42.6394 80.8875 35.3453 80.8875 26.3475C80.8875 17.3498 73.5934 10.0557 64.5956 10.0557C55.5978 10.0557 48.3037 17.3498 48.3037 26.3475C48.3037 35.3453 55.5978 42.6394 64.5956 42.6394Z" fill="#FCD7B4"/>
<path d="M86.0648 195.684L94.1965 195.683L98.0656 174.592H86.0635L86.0648 195.684Z" fill="#FCD7B4"/>
<path d="M83.9902 193.029L100.005 193.028H100.006C101.346 193.028 102.673 193.292 103.912 193.805C105.15 194.318 106.275 195.069 107.223 196.017C108.171 196.965 108.922 198.09 109.435 199.328C109.948 200.566 110.212 201.894 110.212 203.234V203.566L83.9908 203.567L83.9902 193.029Z" fill="#2F2E41"/>
<path d="M95.5035 187.027C95.4088 187.027 95.3136 187.022 95.2182 187.013L83.9638 186.194C83.5087 186.152 83.0694 186.005 82.6797 185.766C82.29 185.528 81.9603 185.202 81.7162 184.816C81.472 184.43 81.3199 183.992 81.2715 183.538C81.2231 183.083 81.2797 182.624 81.437 182.194L96.4988 148.355C96.6064 148.054 96.6504 147.733 96.628 147.413C96.6056 147.094 96.5173 146.782 96.3686 146.499C96.2204 146.212 96.013 145.959 95.7602 145.758C95.5074 145.557 95.2149 145.412 94.9019 145.331C87.8194 143.48 69.6478 138.551 53.9175 132.783C47.1782 130.312 42.9337 126.74 41.3019 122.168C39.1507 116.141 42.3332 110.644 42.4697 110.413L42.5764 110.232L57.3783 111.578L73.4248 112.943L108.59 131.799C111.536 133.393 113.775 136.038 114.859 139.207C115.943 142.377 115.793 145.839 114.44 148.903L98.2273 185.258C97.9927 185.784 97.6107 186.232 97.1273 186.545C96.6439 186.859 96.0799 187.027 95.5035 187.027V187.027Z" fill="#2F2E41"/>
<path d="M69.6205 51.8776L52.3741 45.9077C52.3741 45.9077 41.5473 54.2258 46.7484 74.8608C49.4637 85.5092 48.6728 96.7494 44.493 106.913C43.9898 108.17 43.4096 109.395 42.7559 110.582C42.7559 110.582 61.9923 133.798 79.902 116.552L72.9371 83.0538C72.9371 83.0538 83.8819 60.8325 69.6205 51.8776Z" fill="#FEFEFF"/>
<path d="M66.6186 43.1933C64.2999 39.7226 62.47 34.91 65.0229 31.6077C67.5429 28.348 72.5132 28.8283 76.3727 27.3859C81.7483 25.3769 84.866 19.0617 83.8936 13.406C82.9213 7.75025 78.3812 3.06182 72.9727 1.14348C67.5641 -0.77486 61.4651 -0.150968 56.1686 2.05812C49.6486 4.77754 44.0556 10.0381 41.7103 16.7018C39.3649 23.3655 40.6187 31.3666 45.4841 36.4885C50.7003 41.9797 58.8869 43.4431 66.4602 43.3543" fill="#2F2E41"/>
<path d="M42.5 21.4976C43.4828 25.1347 36.9933 29.8818 33.8096 31.8965C30.6259 33.9112 26.8747 35.0253 23.9981 37.4584C18.9268 41.7478 17.7336 49.1353 18.282 55.7548C18.8304 62.3742 20.7617 68.8863 20.5483 75.525C20.3348 82.1637 17.2525 89.3825 11.0307 91.7078C13.5968 94.1066 16.8405 95.6552 20.3193 96.1423C23.798 96.6295 27.3424 96.0315 30.4687 94.4299C33.5951 92.8284 36.1511 90.3012 37.7882 87.1933C39.4253 84.0854 40.0636 80.5481 39.6161 77.0641C38.6107 69.2376 32.2653 62.3334 33.2735 54.5073C33.8314 50.1767 36.5824 46.4857 39.3025 43.0701C42.0226 39.6544 44.8967 36.1097 45.7833 31.8342C46.6699 27.5588 49.9614 23.2659 45.7833 21.9976L42.5 21.4976Z" fill="#2F2E41"/>
<path d="M111.453 134.063C111.847 133.099 112.025 132.06 111.974 131.019C111.923 129.979 111.645 128.962 111.159 128.041C110.672 127.119 109.99 126.316 109.159 125.687C108.329 125.058 107.371 124.619 106.352 124.4L73.0961 68.665L61.3232 78.742L97.7146 130.359C97.4609 132.095 97.8525 133.863 98.8154 135.329C99.7782 136.795 101.245 137.857 102.939 138.313C104.632 138.77 106.434 138.589 108.004 137.806C109.573 137.023 110.8 135.691 111.453 134.063V134.063Z" fill="#FCD7B4"/>
<path d="M79.7035 77.701L65.6744 85.6755C65.2753 85.9024 64.8319 86.0406 64.3745 86.0807C63.9171 86.1208 63.4564 86.0618 63.0239 85.9078C62.5913 85.7538 62.1971 85.5084 61.8679 85.1883C61.5387 84.8682 61.2824 84.4809 61.1164 84.0528L55.3016 69.0521C54.1528 67.0033 53.8633 64.5826 54.4964 62.3206C55.1295 60.0587 56.6337 58.14 58.6791 56.9853C60.7245 55.8305 63.1444 55.5338 65.4082 56.1603C67.672 56.7868 69.595 58.2853 70.7558 60.3273L80.641 72.9544C80.924 73.3161 81.1256 73.7344 81.2323 74.181C81.3389 74.6276 81.3481 75.0919 81.2591 75.5424C81.1701 75.9928 80.9851 76.4188 80.7167 76.7913C80.4483 77.1638 80.1027 77.4741 79.7035 77.701V77.701Z" fill="#C5CFD6"/>
</svg>
