<svg width="122" height="259" viewBox="0 0 122 259" fill="none" xmlns="http://www.w3.org/2000/svg">
<path d="M0.650817 77.1601C1.02579 77.8766 1.5533 78.5021 2.19616 78.9926C2.83903 79.4831 3.58163 79.8267 4.37165 79.9992C5.16167 80.1717 5.97988 80.1688 6.76868 79.9909C7.55749 79.8129 8.29769 79.4642 8.93713 78.9692L25.3994 89.7096L25.3493 79.4954L9.72413 70.862C8.82141 69.8429 7.57621 69.1904 6.2245 69.028C4.87279 68.8656 3.50849 69.2047 2.39009 69.981C1.27169 70.7574 0.476907 71.917 0.156357 73.2401C-0.164194 74.5633 0.0117532 75.958 0.650854 77.1601L0.650817 77.1601Z" fill="#FFB6B6"/>
<path d="M83.2617 251.787H76.1992L72.8389 224.545L83.2629 224.546L83.2617 251.787Z" fill="#FFB6B6"/>
<path d="M85.063 258.633L62.29 258.632V258.344C62.2902 255.993 63.2242 253.739 64.8864 252.077C66.5487 250.414 68.8031 249.481 71.1539 249.48H71.1545L85.0634 249.481L85.063 258.633Z" fill="#2F2E41"/>
<path d="M48.3199 251.787H41.2572L37.8975 224.545L48.321 224.546L48.3199 251.787Z" fill="#FFB6B6"/>
<path d="M50.1216 258.633L27.3486 258.632V258.344C27.3488 255.993 28.2827 253.739 29.945 252.077C31.6072 250.414 33.8617 249.481 36.2125 249.48H36.2131L50.122 249.481L50.1216 258.633Z" fill="#2F2E41"/>
<path d="M40.1685 112.776L33.1309 183.001L36.6497 243.616H50.2547L53.0048 186.598L63.7044 155.419L69.9324 203.467V242.587L85.4104 243.303L90.5469 147.519C90.5469 147.519 92.2917 120.728 88.8101 117.446C85.3284 114.163 40.1685 112.776 40.1685 112.776Z" fill="#2F2E41"/>
<path d="M100.173 49.4098L85.9493 44.0553L83.4459 38.9795L65.5645 39.2392L61.5132 43.3093L47.5887 47.8706L38.7354 115.699C38.7354 115.699 65.9871 135.176 90.1771 121.719L100.173 49.4098Z" fill="#3F3D56"/>
<path d="M13.1182 83.7162L36.5225 97.4762L56.0242 71.3902V55.0281C56.0257 53.5158 55.5786 52.0371 54.7396 50.7789C53.9658 49.6164 52.8893 48.6871 51.6262 48.0915C50.363 47.4958 48.9612 47.2564 47.572 47.399C46.1828 47.5416 44.8588 48.0608 43.743 48.9006C42.6273 49.7405 41.762 50.869 41.2405 52.1646L31.1126 77.3288L16.7476 73.0843L13.1182 83.7162Z" fill="#3F3D56"/>
<path d="M81.1285 120.412C81.2709 119.616 81.5861 118.861 82.0519 118.2C82.5177 117.539 83.1228 116.988 83.8245 116.586C84.5262 116.184 85.3074 115.941 86.1132 115.874C86.9191 115.807 87.7298 115.917 88.4884 116.197L100.963 101.007L103.984 110.764L91.6747 123.693C91.1199 124.936 90.1282 125.933 88.8878 126.494C87.6473 127.055 86.2442 127.141 84.9442 126.737C83.6443 126.332 82.5378 125.465 81.8346 124.299C81.1313 123.134 80.8801 121.75 81.1285 120.412L81.1285 120.412Z" fill="#FFB6B6"/>
<path d="M99.7357 118.02L91.8524 110.136L104.872 86.8088L85.9893 65.6447L87.0795 57.1064C87.3304 55.1407 88.1176 53.2821 89.355 51.7344V51.7344C90.4311 50.3886 91.8137 49.32 93.3873 48.618C94.961 47.9159 96.6798 47.6009 98.4001 47.6992C100.12 47.7976 101.792 48.3064 103.276 49.1831C104.759 50.0599 106.011 51.279 106.927 52.7387L121.69 85.5657L121.616 85.675L99.7357 118.02Z" fill="#3F3D56"/>
<path d="M87.5992 21.3572C87.0536 25.3387 84.9496 28.9407 81.7495 31.3717C78.5495 33.8027 74.5152 34.8638 70.5331 34.3219C66.5511 33.7799 62.9471 31.6793 60.5132 28.4815C58.0792 25.2837 57.0144 21.2504 57.5527 17.2679L57.582 17.0527C58.2101 13.1238 60.3576 9.59922 63.561 7.23936C66.7645 4.87949 70.7673 3.87346 74.7058 4.43826C78.6444 5.00306 82.2031 7.09343 84.6143 10.2585C87.0254 13.4235 88.0958 17.4095 87.5945 21.3566L87.5992 21.3572Z" fill="#FFB6B6"/>
<path d="M83.74 29.1667C84.5186 27.5851 85.3185 25.8871 85.0997 24.1378C84.8809 22.3886 83.1654 20.7166 81.4809 21.2365C80.4737 21.5473 79.7123 22.542 78.6594 22.5929C77.2106 22.663 76.38 21.0049 75.9291 19.6263L74.0925 14.0118C72.3289 15.3862 70.2836 16.3544 68.1026 16.8473C65.9217 17.3401 63.6588 17.3454 61.4756 16.8628C59.7704 16.473 58.0477 15.7128 57.0474 14.2778C56.0471 12.8429 56.0532 10.617 57.4251 9.53184C58.0978 8.99978 58.9932 8.79764 59.6361 8.2299C60.0349 7.8777 60.3097 7.40648 60.4198 6.88595C60.53 6.36543 60.4697 5.82327 60.2478 5.33969C60.0259 4.85611 59.6542 4.45682 59.1877 4.20089C58.7213 3.94497 58.1848 3.84602 57.6578 3.91868L62.2821 3.34072L60.9043 0.848793C61.428 1.20523 62.0204 1.44839 62.6435 1.56271C63.2666 1.67702 63.9067 1.65997 64.5229 1.51265C65.767 1.28863 66.9388 0.776365 68.1559 0.434748C71.106 -0.318609 74.2215 -0.0883825 77.0289 1.09048C79.8362 2.26933 82.1821 4.33237 83.7099 6.96613C84.8479 6.58615 86.0744 6.56089 87.2271 6.89371C88.3797 7.22653 89.404 7.90172 90.1642 8.8298C91.4021 10.401 91.7388 12.4977 91.7867 14.4974C91.8768 18.4402 91.0171 22.3469 89.2802 25.8877C88.782 27.0124 88.0664 28.0275 87.1745 28.8746C86.7255 29.2947 86.19 29.6113 85.6056 29.8024C85.0212 29.9936 84.4021 30.0545 83.7916 29.981" fill="#2F2E41"/>
</svg>
